<svg xmlns="http://www.w3.org/2000/svg" viewBox="0 0 100 100" width="100" height="100" role="img" aria-label="Hivelore marketplace icon">
  <defs>
    <filter id="tileGlow" x="-80%" y="-80%" width="260%" height="260%">
      <feDropShadow dx="0" dy="0" stdDeviation="3.6" flood-color="#F5A623" flood-opacity="0.7"></feDropShadow>
    </filter>
  </defs>
  <rect x="0" y="0" width="100" height="100" rx="22" fill="#1A1A1A"></rect>
  <path d="M61 29.215 L55.5 19.689 L44.5 19.689 L39 29.215 L44.5 38.742 L55.5 38.742 Z" fill="none" stroke="#F5F5F0" stroke-width="1.8" stroke-linejoin="round" stroke-linecap="round"></path>
  <path d="M61 70.785 L55.5 61.258 L44.5 61.258 L39 70.785 L44.5 80.311 L55.5 80.311 Z" fill="none" stroke="#F5F5F0" stroke-width="1.8" stroke-linejoin="round" stroke-linecap="round"></path>
  <path d="M79 39.608 L73.5 30.081 L62.5 30.081 L57 39.608 L62.5 49.134 L73.5 49.134 Z" fill="none" stroke="#F5F5F0" stroke-width="1.8" stroke-linejoin="round" stroke-linecap="round"></path>
  <path d="M79 60.392 L73.5 50.866 L62.5 50.866 L57 60.392 L62.5 69.919 L73.5 69.919 Z" fill="none" stroke="#F5F5F0" stroke-width="1.8" stroke-linejoin="round" stroke-linecap="round"></path>
  <path d="M43 39.608 L37.5 30.081 L26.5 30.081 L21 39.608 L26.5 49.134 L37.5 49.134 Z" fill="none" stroke="#F5F5F0" stroke-width="1.8" stroke-linejoin="round" stroke-linecap="round"></path>
  <path d="M43 60.392 L37.5 50.866 L26.5 50.866 L21 60.392 L26.5 69.919 L37.5 69.919 Z" fill="none" stroke="#F5F5F0" stroke-width="1.8" stroke-linejoin="round" stroke-linecap="round"></path>
  <path d="M61 50 L55.5 40.474 L44.5 40.474 L39 50 L44.5 59.526 L55.5 59.526 Z" fill="#F5A623" filter="url(#tileGlow)"></path>
</svg>